<svg xmlns="http://www.w3.org/2000/svg" viewBox="0 0 480 300" font-family="'Noto Sans KR','Apple SD Gothic Neo',sans-serif">
<defs>
<linearGradient id="bg" x1="0" y1="0" x2="0" y2="1"><stop offset="0" stop-color="#FBFDFC"/><stop offset="1" stop-color="#E9F1EF"/></linearGradient>
<radialGradient id="glow" cx="50%" cy="50%" r="50%"><stop offset="0" stop-color="#E0982A" stop-opacity="0.40"/><stop offset="1" stop-color="#E0982A" stop-opacity="0"/></radialGradient>
<filter id="soft" x="-30%" y="-30%" width="160%" height="160%"><feDropShadow dx="0" dy="3" stdDeviation="4" flood-color="#22332F" flood-opacity="0.20"/></filter>
</defs>
<rect x="2" y="2" width="476" height="296" rx="20" fill="url(#bg)" stroke="#DBE5E2" stroke-width="2"/>
<text x="28" y="42" font-size="20" font-weight="700" fill="#2B3A36">쿼드 셋 · Quad Set</text>
<line x1="28" y1="54" x2="452" y2="54" stroke="#E4EBE9" stroke-width="2"/>
<rect x="44" y="248" width="392" height="12" rx="6" fill="#CBD8D3"/>
<ellipse cx="264" cy="241" rx="34" ry="12" fill="#E6A23C" stroke="#C9871F" stroke-width="2"/>
<ellipse cx="214" cy="226" rx="66" ry="30" fill="url(#glow)"/>
<g filter="url(#soft)" stroke-linecap="round">
  <line x1="158" y1="248" x2="264" y2="224" stroke="#607D77" stroke-width="32"/>
  <line x1="264" y1="224" x2="384" y2="236" stroke="#607D77" stroke-width="24"/>
  <line x1="384" y1="236" x2="384" y2="210" stroke="#607D77" stroke-width="15"/>
  <line x1="158" y1="248" x2="134" y2="150" stroke="#516C66" stroke-width="30"/>
  <line x1="142" y1="164" x2="174" y2="196" stroke="#6A8781" stroke-width="15"/>
  <line x1="174" y1="196" x2="200" y2="208" stroke="#6A8781" stroke-width="15"/>
  <circle cx="158" cy="248" r="16" fill="#516C66"/>
  <circle cx="264" cy="224" r="16" fill="#607D77"/>
  <circle cx="384" cy="236" r="12" fill="#607D77"/>
  <circle cx="126" cy="130" r="19" fill="#516C66"/>
</g>
<line x1="250" y1="180" x2="250" y2="212" stroke="#E4572E" stroke-width="6" stroke-linecap="round"/>
<polygon points="250,217 243,204 257,204" fill="#E4572E"/>
<text x="300" y="150" font-size="21.8" font-weight="600" fill="#2B3A36">허벅지로 수건을</text>
<text x="287.2" y="170" font-size="21.8" font-weight="600" fill="#2B3A36">눌러 10초 버티기</text>
<text x="380.5" y="205" font-size="18.8" fill="#6E807B">발끝 당김</text>
<rect x="360" y="28" width="92" height="24" rx="12" fill="#EAF3F1" stroke="#CBDCD7"/>
<text x="406" y="45" font-size="12.5" font-weight="700" fill="#14776A" text-anchor="middle">좌우 각각</text>
</svg>
