<svg xmlns="http://www.w3.org/2000/svg" viewBox="0 0 480 300" font-family="'Noto Sans KR','Apple SD Gothic Neo',sans-serif">
<defs>
<linearGradient id="bg" x1="0" y1="0" x2="0" y2="1"><stop offset="0" stop-color="#FBFDFC"/><stop offset="1" stop-color="#E9F1EF"/></linearGradient>
<radialGradient id="glow" cx="50%" cy="50%" r="50%"><stop offset="0" stop-color="#E0982A" stop-opacity="0.40"/><stop offset="1" stop-color="#E0982A" stop-opacity="0"/></radialGradient>
<filter id="soft" x="-30%" y="-30%" width="160%" height="160%"><feDropShadow dx="0" dy="3" stdDeviation="4" flood-color="#22332F" flood-opacity="0.20"/></filter>
</defs>
<rect x="2" y="2" width="476" height="296" rx="20" fill="url(#bg)" stroke="#DBE5E2" stroke-width="2"/>
<text x="28" y="42" font-size="19" font-weight="700" fill="#2B3A36">SLR · 스트레이트 레그 레이즈</text>
<line x1="28" y1="54" x2="452" y2="54" stroke="#E4EBE9" stroke-width="2"/>
<rect x="44" y="252" width="392" height="12" rx="6" fill="#CBD8D3"/>
<ellipse cx="300" cy="200" rx="58" ry="32" fill="url(#glow)"/>
<g filter="url(#soft)" stroke-linecap="round">
  <line x1="92" y1="240" x2="214" y2="242" stroke="#516C66" stroke-width="30"/>
  <line x1="112" y1="242" x2="150" y2="246" stroke="#6A8781" stroke-width="14"/>
  <line x1="214" y1="238" x2="360" y2="170" stroke="#5EA093" stroke-width="26"/>
  <line x1="360" y1="170" x2="346" y2="153" stroke="#5EA093" stroke-width="14"/>
  <line x1="214" y1="240" x2="252" y2="190" stroke="#607D77" stroke-width="24"/>
  <line x1="252" y1="190" x2="272" y2="248" stroke="#607D77" stroke-width="22"/>
  <line x1="272" y1="248" x2="302" y2="248" stroke="#607D77" stroke-width="14"/>
  <circle cx="252" cy="190" r="14" fill="#607D77"/>
  <circle cx="214" cy="241" r="16" fill="#516C66"/>
  <circle cx="72" cy="230" r="19" fill="#516C66"/>
</g>
<line x1="312" y1="214" x2="350" y2="182" stroke="#E4572E" stroke-width="6" stroke-linecap="round"/>
<polygon points="353,179 338,183 345,195" fill="#E4572E"/>
<text x="200" y="106" font-size="21.8" font-weight="600" fill="#2B3A36">드는 다리는 쭉 펴서 들기</text>
<text x="246" y="124" font-size="19.5" fill="#6E807B">(무릎 굽히지 않기)</text>
<text x="86" y="150" font-size="20.2" font-weight="600" fill="#2B3A36">받치는 다리는</text>
<text x="86" y="168" font-size="20.2" font-weight="600" fill="#2B3A36">무릎 세워 접기</text>
<text x="86" y="186" font-size="17.2" fill="#6E807B">(허리 안 뜨게)</text>
<rect x="360" y="28" width="92" height="24" rx="12" fill="#EAF3F1" stroke="#CBDCD7"/>
<text x="406" y="45" font-size="12.5" font-weight="700" fill="#14776A" text-anchor="middle">좌우 각각</text>
</svg>
