<svg xmlns="http://www.w3.org/2000/svg" viewBox="0 0 480 300" font-family="'Noto Sans KR','Apple SD Gothic Neo',sans-serif">
<defs>
<linearGradient id="bg" x1="0" y1="0" x2="0" y2="1"><stop offset="0" stop-color="#FBFDFC"/><stop offset="1" stop-color="#E9F1EF"/></linearGradient>
<radialGradient id="glow" cx="50%" cy="50%" r="50%"><stop offset="0" stop-color="#E0982A" stop-opacity="0.42"/><stop offset="1" stop-color="#E0982A" stop-opacity="0"/></radialGradient>
<filter id="soft" x="-30%" y="-30%" width="160%" height="160%"><feDropShadow dx="0" dy="3" stdDeviation="4" flood-color="#22332F" flood-opacity="0.20"/></filter>
</defs>
<rect x="2" y="2" width="476" height="296" rx="20" fill="url(#bg)" stroke="#DBE5E2" stroke-width="2"/>
<text x="28" y="42" font-size="20" font-weight="700" fill="#2B3A36">클램쉘 · Clamshell</text>
<line x1="28" y1="54" x2="452" y2="54" stroke="#E4EBE9" stroke-width="2"/>
<rect x="44" y="252" width="392" height="12" rx="6" fill="#CBD8D3"/>
<ellipse cx="256" cy="196" rx="52" ry="30" fill="url(#glow)"/>
<g filter="url(#soft)" stroke-linecap="round">
  <line x1="96" y1="206" x2="66" y2="242" stroke="#6A8781" stroke-width="13"/>
  <line x1="96" y1="168" x2="96" y2="206" stroke="#6A8781" stroke-width="13"/>
  <line x1="96" y1="166" x2="246" y2="182" stroke="#516C66" stroke-width="30"/>
  <line x1="246" y1="182" x2="282" y2="222" stroke="#607D77" stroke-width="24"/>
  <line x1="282" y1="222" x2="240" y2="246" stroke="#607D77" stroke-width="22"/>
  <line x1="246" y1="174" x2="306" y2="186" stroke="#5EA093" stroke-width="24"/>
  <line x1="306" y1="186" x2="252" y2="216" stroke="#5EA093" stroke-width="22"/>
  <circle cx="246" cy="180" r="16" fill="#516C66"/>
  <circle cx="80" cy="150" r="19" fill="#516C66"/>
</g>
<ellipse cx="296" cy="202" rx="22" ry="11" fill="none" stroke="#E6A23C" stroke-width="5"/>
<path d="M 300 216 A 30 30 0 0 0 314 188" fill="none" stroke="#E4572E" stroke-width="5.5" stroke-linecap="round"/>
<polygon points="316,184 305,193 318,197" fill="#E4572E"/>
<text x="256" y="116" font-size="21.8" font-weight="600" fill="#2B3A36">무릎 벌리기</text>
<text x="256" y="136" font-size="19.5" fill="#6E807B">(뒤꿈치는 붙인 채)</text>
<text x="150" y="238" font-size="18.8" font-weight="600" fill="#C9871F">밴드 걸면 자극 ↑</text>
<rect x="360" y="28" width="92" height="24" rx="12" fill="#EAF3F1" stroke="#CBDCD7"/>
<text x="406" y="45" font-size="12.5" font-weight="700" fill="#14776A" text-anchor="middle">좌우 각각</text>
</svg>
