<svg xmlns="http://www.w3.org/2000/svg" viewBox="0 0 470 300" font-family="Noto Sans CJK KR, sans-serif">
<rect x="1" y="1" width="468" height="298" rx="16" fill="#FFFFFF" stroke="#E4E8EA" stroke-width="2"/>
<text x="26" y="40" font-size="21" font-weight="700" fill="#243B36">③ 클램쉘 · Clamshell</text>
<line x1="26" y1="52" x2="444" y2="52" stroke="#EEF1F2" stroke-width="2"/>
<line x1="40" y1="240" x2="430" y2="240" stroke="#D3D8DD" stroke-width="7" stroke-linecap="round"/><line x1="96" y1="205" x2="66" y2="238" stroke="#14776A" stroke-width="9" stroke-linecap="round"/><circle cx="78" cy="150" r="15" fill="#14776A"/><line x1="94" y1="160" x2="244" y2="176" stroke="#14776A" stroke-width="12" stroke-linecap="round"/><line x1="244" y1="176" x2="278" y2="214" stroke="#14776A" stroke-width="13" stroke-linecap="round"/><line x1="278" y1="214" x2="236" y2="238" stroke="#14776A" stroke-width="13" stroke-linecap="round"/><line x1="244" y1="168" x2="300" y2="182" stroke="#5CA99E" stroke-width="13" stroke-linecap="round"/><line x1="300" y1="182" x2="250" y2="214" stroke="#5CA99E" stroke-width="13" stroke-linecap="round"/><ellipse cx="289" cy="198" rx="20" ry="10" fill="none" stroke="#E0982A" stroke-width="5"/><path d="M 292 214 A 34 34 0 0 0 305 184" fill="none" stroke="#C0392B" stroke-width="5"/><line x1="302" y1="190" x2="305" y2="184" stroke="#C0392B" stroke-width="5" stroke-linecap="round"/><polygon points="305,184 304.8,196.0 295.5,191.3" fill="#C0392B"/><text x="250" y="120" font-size="16" fill="#243B36" text-anchor="start" font-weight="400">무릎 벌리기</text><text x="250" y="142" font-size="14" fill="#5A6B66" text-anchor="start" font-weight="400">(뒤꿈치는 붙인 채)</text><text x="150" y="232" font-size="13" fill="#E0982A" text-anchor="start" font-weight="400">밴드 걸면 자극 ↑</text>
</svg>