<svg xmlns="http://www.w3.org/2000/svg" viewBox="0 0 480 300" font-family="'Noto Sans KR','Apple SD Gothic Neo',sans-serif">
<defs>
<linearGradient id="bg" x1="0" y1="0" x2="0" y2="1"><stop offset="0" stop-color="#FBFDFC"/><stop offset="1" stop-color="#E9F1EF"/></linearGradient>
<radialGradient id="glow" cx="50%" cy="50%" r="50%"><stop offset="0" stop-color="#E0982A" stop-opacity="0.42"/><stop offset="1" stop-color="#E0982A" stop-opacity="0"/></radialGradient>
<filter id="soft" x="-30%" y="-30%" width="160%" height="160%"><feDropShadow dx="0" dy="3" stdDeviation="4" flood-color="#22332F" flood-opacity="0.20"/></filter>
</defs>
<rect x="2" y="2" width="476" height="296" rx="20" fill="url(#bg)" stroke="#DBE5E2" stroke-width="2"/>
<text x="28" y="42" font-size="19" font-weight="700" fill="#2B3A36">하프 스쿼트 · 준비자세 (힙힌지)</text>
<line x1="28" y1="54" x2="452" y2="54" stroke="#E4EBE9" stroke-width="2"/>
<rect x="150" y="258" width="200" height="10" rx="5" fill="#CBD8D3"/>
<ellipse cx="192" cy="172" rx="42" ry="28" fill="url(#glow)"/>
<g filter="url(#soft)" stroke-linecap="round">
  <line x1="206" y1="257" x2="252" y2="257" stroke="#607D77" stroke-width="12"/>
  <line x1="224" y1="254" x2="238" y2="202" stroke="#607D77" stroke-width="20"/>
  <line x1="238" y1="202" x2="198" y2="166" stroke="#607D77" stroke-width="24"/>
  <line x1="198" y1="166" x2="258" y2="116" stroke="#516C66" stroke-width="28"/>
  <line x1="250" y1="124" x2="298" y2="112" stroke="#6A8781" stroke-width="14"/>
  <line x1="298" y1="112" x2="336" y2="98" stroke="#6A8781" stroke-width="14"/>
  <circle cx="238" cy="202" r="13" fill="#607D77"/>
  <circle cx="198" cy="166" r="14" fill="#516C66"/>
  <circle cx="336" cy="98" r="7" fill="#6A8781"/>
  <circle cx="272" cy="100" r="17" fill="#516C66"/>
</g>
<line x1="222" y1="176" x2="188" y2="164" stroke="#E4572E" stroke-width="5.5" stroke-linecap="round"/>
<polygon points="184,163 197,158 195,170" fill="#E4572E"/>
<circle cx="230" cy="255" r="5" fill="#E4572E"/>
<text x="40" y="150" font-size="17.5" font-weight="600" fill="#2B3A36">엉덩이 뒤로</text>
<text x="40" y="168" font-size="16.3" fill="#6E807B">(고관절 접기)</text>
<text x="250" y="80" font-size="17.5" font-weight="600" fill="#2B3A36">가슴 들고 팔 앞으로</text>
<text x="40" y="285" font-size="15.6" fill="#6E807B">무게중심 발볼(미드풋) · 뒤꿈치는 떨어지지 않게</text>
<rect x="360" y="28" width="92" height="24" rx="12" fill="#EAF3F1" stroke="#CBDCD7"/>
<text x="406" y="45" font-size="12.5" font-weight="700" fill="#14776A" text-anchor="middle">준비자세</text>
</svg>
