<svg xmlns="http://www.w3.org/2000/svg" viewBox="0 0 480 300" font-family="'Noto Sans KR','Apple SD Gothic Neo',sans-serif">
<defs>
<linearGradient id="bg" x1="0" y1="0" x2="0" y2="1"><stop offset="0" stop-color="#FBFDFC"/><stop offset="1" stop-color="#E9F1EF"/></linearGradient>
<radialGradient id="glow" cx="50%" cy="50%" r="50%"><stop offset="0" stop-color="#E0982A" stop-opacity="0.42"/><stop offset="1" stop-color="#E0982A" stop-opacity="0"/></radialGradient>
<filter id="soft" x="-30%" y="-30%" width="160%" height="160%"><feDropShadow dx="0" dy="3" stdDeviation="4" flood-color="#22332F" flood-opacity="0.20"/></filter>
</defs>
<rect x="2" y="2" width="476" height="296" rx="20" fill="url(#bg)" stroke="#DBE5E2" stroke-width="2"/>
<text x="28" y="42" font-size="19" font-weight="700" fill="#2B3A36">프론트 스쿼트 · 준비자세 (프론트 랙)</text>
<line x1="28" y1="54" x2="452" y2="54" stroke="#E4EBE9" stroke-width="2"/>
<rect x="160" y="258" width="180" height="10" rx="5" fill="#CBD8D3"/>
<ellipse cx="238" cy="188" rx="40" ry="30" fill="url(#glow)"/>
<g filter="url(#soft)" stroke-linecap="round">
  <line x1="208" y1="257" x2="252" y2="257" stroke="#607D77" stroke-width="12"/>
  <line x1="226" y1="254" x2="232" y2="202" stroke="#607D77" stroke-width="20"/>
  <line x1="232" y1="202" x2="228" y2="152" stroke="#607D77" stroke-width="24"/>
  <line x1="228" y1="152" x2="234" y2="94" stroke="#516C66" stroke-width="28"/>
  <circle cx="228" cy="152" r="14" fill="#607D77"/>
  <circle cx="240" cy="76" r="17" fill="#516C66"/>
  <line x1="234" y1="102" x2="256" y2="116" stroke="#6A8781" stroke-width="13"/>
  <line x1="256" y1="116" x2="252" y2="98" stroke="#6A8781" stroke-width="13"/>
</g>
<line x1="228" y1="104" x2="266" y2="104" stroke="#3A4038" stroke-width="6" stroke-linecap="round"/>
<circle cx="256" cy="104" r="15" fill="#E6A23C" stroke="#C9871F" stroke-width="2"/>
<line x1="258" y1="128" x2="258" y2="106" stroke="#E4572E" stroke-width="5.5" stroke-linecap="round"/>
<polygon points="258,101 252,113 264,113" fill="#E4572E"/>
<circle cx="230" cy="255" r="5" fill="#E4572E"/>
<text x="286" y="98" font-size="13.5" font-weight="600" fill="#2B3A36">바벨 앞쪽 랙</text>
<text x="286" y="128" font-size="12.5" fill="#6E807B">팔꿈치 올려 고정</text>
<text x="44" y="120" font-size="13.5" font-weight="600" fill="#2B3A36">가슴 들고</text>
<text x="44" y="138" font-size="13.5" font-weight="600" fill="#2B3A36">곧게</text>
<text x="44" y="285" font-size="12" fill="#6E807B">무게중심 발볼 · 뒤꿈치는 골반보다 조금 넓게</text>
<rect x="360" y="28" width="92" height="24" rx="12" fill="#EAF3F1" stroke="#CBDCD7"/>
<text x="406" y="45" font-size="12.5" font-weight="700" fill="#14776A" text-anchor="middle">준비자세</text>
</svg>
