<svg xmlns="http://www.w3.org/2000/svg" viewBox="0 0 480 300" font-family="'Noto Sans KR','Apple SD Gothic Neo',sans-serif">
<defs>
<linearGradient id="bg" x1="0" y1="0" x2="0" y2="1"><stop offset="0" stop-color="#FBFDFC"/><stop offset="1" stop-color="#E9F1EF"/></linearGradient>
<radialGradient id="glow" cx="50%" cy="50%" r="50%"><stop offset="0" stop-color="#E0982A" stop-opacity="0.42"/><stop offset="1" stop-color="#E0982A" stop-opacity="0"/></radialGradient>
<filter id="soft" x="-30%" y="-30%" width="160%" height="160%"><feDropShadow dx="0" dy="3" stdDeviation="4" flood-color="#22332F" flood-opacity="0.20"/></filter>
</defs>
<rect x="2" y="2" width="476" height="296" rx="20" fill="url(#bg)" stroke="#DBE5E2" stroke-width="2"/>
<text x="28" y="42" font-size="19" font-weight="700" fill="#2B3A36">시티드로우 · 핵심 자세</text>
<line x1="28" y1="54" x2="452" y2="54" stroke="#E4EBE9" stroke-width="2"/>
<rect x="352" y="130" width="12" height="110" rx="4" fill="#C3CEC9"/>
<rect x="120" y="232" width="70" height="10" rx="4" fill="#CBD8D3"/>
<ellipse cx="176" cy="180" rx="40" ry="30" fill="url(#glow)"/>
<g filter="url(#soft)" stroke-linecap="round">
  <line x1="168" y1="228" x2="250" y2="238" stroke="#607D77" stroke-width="22"/>
  <line x1="250" y1="238" x2="304" y2="238" stroke="#607D77" stroke-width="18"/>
  <line x1="304" y1="238" x2="304" y2="222" stroke="#607D77" stroke-width="12"/>
  <line x1="170" y1="228" x2="180" y2="150" stroke="#516C66" stroke-width="27"/>
  <line x1="182" y1="162" x2="232" y2="172" stroke="#6A8781" stroke-width="13"/>
  <line x1="232" y1="172" x2="286" y2="178" stroke="#6A8781" stroke-width="13"/>
  <circle cx="168" cy="228" r="14" fill="#516C66"/>
  <circle cx="188" cy="136" r="16" fill="#516C66"/>
</g>
<line x1="286" y1="178" x2="356" y2="184" stroke="#8894A0" stroke-width="4"/>
<circle cx="286" cy="178" r="7" fill="#3A4038"/>
<text x="217.5" y="120" font-size="17.5" font-weight="600" fill="#2B3A36">전인(뽑기) → 후인(접기)</text>
<text x="228" y="138" font-size="15.6" fill="#6E807B">명치 들고, 등이 달려가게</text>
<rect x="360" y="28" width="92" height="24" rx="12" fill="#EAF3F1" stroke="#CBDCD7"/>
<text x="406" y="45" font-size="12.5" font-weight="700" fill="#14776A" text-anchor="middle">핵심 자세</text>
</svg>
