<svg xmlns="http://www.w3.org/2000/svg" viewBox="0 0 480 300" font-family="'Noto Sans KR','Apple SD Gothic Neo',sans-serif">
<defs>
<linearGradient id="bg" x1="0" y1="0" x2="0" y2="1"><stop offset="0" stop-color="#FBFDFC"/><stop offset="1" stop-color="#E9F1EF"/></linearGradient>
<radialGradient id="glow" cx="50%" cy="50%" r="50%"><stop offset="0" stop-color="#E0982A" stop-opacity="0.42"/><stop offset="1" stop-color="#E0982A" stop-opacity="0"/></radialGradient>
<filter id="soft" x="-30%" y="-30%" width="160%" height="160%"><feDropShadow dx="0" dy="3" stdDeviation="4" flood-color="#22332F" flood-opacity="0.20"/></filter>
</defs>
<rect x="2" y="2" width="476" height="296" rx="20" fill="url(#bg)" stroke="#DBE5E2" stroke-width="2"/>
<text x="28" y="42" font-size="19" font-weight="700" fill="#2B3A36">암풀다운(스트레이트 암) · 핵심 자세</text>
<line x1="28" y1="54" x2="452" y2="54" stroke="#E4EBE9" stroke-width="2"/>
<rect x="150" y="256" width="200" height="10" rx="5" fill="#CBD8D3"/>
<line x1="284" y1="212" x2="284" y2="96" stroke="#8894A0" stroke-width="4"/>
<ellipse cx="264" cy="176" rx="40" ry="28" fill="url(#glow)"/>
<g filter="url(#soft)" stroke-linecap="round">
  <line x1="210" y1="254" x2="216" y2="176" stroke="#607D77" stroke-width="24"/>
  <line x1="216" y1="176" x2="284" y2="152" stroke="#516C66" stroke-width="27"/>
  <line x1="278" y1="158" x2="284" y2="210" stroke="#6A8781" stroke-width="13"/>
  <line x1="210" y1="254" x2="196" y2="260" stroke="#607D77" stroke-width="13"/>
  <circle cx="216" cy="176" r="14" fill="#516C66"/>
  <circle cx="300" cy="140" r="16" fill="#516C66"/>
</g>
<line x1="258" y1="210" x2="310" y2="210" stroke="#3A4038" stroke-width="6" stroke-linecap="round"/>
<circle cx="284" cy="210" r="7" fill="#3A4038"/>
<text x="40" y="150" font-size="13.5" font-weight="600" fill="#2B3A36">팔 곧게 · 겨드랑이 조여 큰 원</text>
<text x="40" y="168" font-size="12" fill="#6E807B">힙힌지로 엉덩이 뒤, 가슴은 바닥 보게</text>
<rect x="360" y="28" width="92" height="24" rx="12" fill="#EAF3F1" stroke="#CBDCD7"/>
<text x="406" y="45" font-size="12.5" font-weight="700" fill="#14776A" text-anchor="middle">핵심 자세</text>
</svg>
