<svg xmlns="http://www.w3.org/2000/svg" viewBox="0 0 480 300" font-family="'Noto Sans KR','Apple SD Gothic Neo',sans-serif">
<defs>
<linearGradient id="bg" x1="0" y1="0" x2="0" y2="1"><stop offset="0" stop-color="#FBFDFC"/><stop offset="1" stop-color="#E9F1EF"/></linearGradient>
<radialGradient id="glow" cx="50%" cy="50%" r="50%"><stop offset="0" stop-color="#E0982A" stop-opacity="0.42"/><stop offset="1" stop-color="#E0982A" stop-opacity="0"/></radialGradient>
<filter id="soft" x="-30%" y="-30%" width="160%" height="160%"><feDropShadow dx="0" dy="3" stdDeviation="4" flood-color="#22332F" flood-opacity="0.20"/></filter>
</defs>
<rect x="2" y="2" width="476" height="296" rx="20" fill="url(#bg)" stroke="#DBE5E2" stroke-width="2"/>
<text x="28" y="42" font-size="19" font-weight="700" fill="#2B3A36">스쿼트 · 핵심 자세</text>
<line x1="28" y1="54" x2="452" y2="54" stroke="#E4EBE9" stroke-width="2"/>
<rect x="180" y="258" width="120" height="10" rx="5" fill="#CBD8D3"/>
<ellipse cx="192" cy="200" rx="42" ry="30" fill="url(#glow)"/>
<g filter="url(#soft)" stroke-linecap="round">
  <line x1="224" y1="257" x2="238" y2="210" stroke="#607D77" stroke-width="20"/>
  <line x1="238" y1="210" x2="194" y2="198" stroke="#607D77" stroke-width="26"/>
  <line x1="194" y1="198" x2="232" y2="122" stroke="#516C66" stroke-width="28"/>
  <line x1="232" y1="126" x2="216" y2="116" stroke="#6A8781" stroke-width="12"/>
  <circle cx="238" cy="210" r="14" fill="#607D77"/>
  <circle cx="194" cy="198" r="14" fill="#516C66"/>
  <circle cx="240" cy="104" r="16" fill="#516C66"/>
</g>
<line x1="212" y1="122" x2="240" y2="122" stroke="#3A4038" stroke-width="6" stroke-linecap="round"/>
<circle cx="226" cy="122" r="13" fill="#E6A23C" stroke="#C9871F" stroke-width="2"/>
<circle cx="232" cy="256" r="5" fill="#E4572E"/>
<text x="252" y="120" font-size="17.5" font-weight="600" fill="#2B3A36">무릎 = 발가락 방향</text>
<text x="218.5" y="138" font-size="15.6" fill="#6E807B">무게중심 발볼(뒤꿈치 안 뜸)</text>
<text x="40" y="285" font-size="15.6" fill="#6E807B">힙힌지 살짝만 뒤로 · 엉덩이로 잡기</text>
<rect x="360" y="28" width="92" height="24" rx="12" fill="#EAF3F1" stroke="#CBDCD7"/>
<text x="406" y="45" font-size="12.5" font-weight="700" fill="#14776A" text-anchor="middle">핵심 자세</text>
</svg>
