<svg xmlns="http://www.w3.org/2000/svg" viewBox="0 0 480 300" font-family="'Noto Sans KR','Apple SD Gothic Neo',sans-serif">
<defs>
<linearGradient id="bg" x1="0" y1="0" x2="0" y2="1"><stop offset="0" stop-color="#FBFDFC"/><stop offset="1" stop-color="#E9F1EF"/></linearGradient>
<radialGradient id="glow" cx="50%" cy="50%" r="50%"><stop offset="0" stop-color="#E0982A" stop-opacity="0.42"/><stop offset="1" stop-color="#E0982A" stop-opacity="0"/></radialGradient>
<filter id="soft" x="-30%" y="-30%" width="160%" height="160%"><feDropShadow dx="0" dy="3" stdDeviation="4" flood-color="#22332F" flood-opacity="0.20"/></filter>
</defs>
<rect x="2" y="2" width="476" height="296" rx="20" fill="url(#bg)" stroke="#DBE5E2" stroke-width="2"/>
<text x="28" y="42" font-size="19" font-weight="700" fill="#2B3A36">레그 컬 (엎드려) · 핵심 자세</text>
<line x1="28" y1="54" x2="452" y2="54" stroke="#E4EBE9" stroke-width="2"/>
<rect x="120" y="196" width="215" height="14" rx="7" fill="#CBD8D3"/>
<ellipse cx="300" cy="176" rx="40" ry="26" fill="url(#glow)"/>
<g filter="url(#soft)" stroke-linecap="round">
  <line x1="150" y1="188" x2="272" y2="188" stroke="#516C66" stroke-width="26"/>
  <line x1="272" y1="188" x2="320" y2="192" stroke="#607D77" stroke-width="24"/>
  <line x1="320" y1="192" x2="308" y2="150" stroke="#5EA093" stroke-width="22"/>
  <line x1="176" y1="188" x2="176" y2="210" stroke="#6A8781" stroke-width="12"/>
  <circle cx="320" cy="192" r="14" fill="#607D77"/>
  <circle cx="150" cy="184" r="16" fill="#516C66"/>
</g>
<circle cx="304" cy="148" r="11" fill="#E6A23C" stroke="#C9871F" stroke-width="2"/>
<path d="M 340 186 A 40 40 0 0 0 316 150" fill="none" stroke="#E4572E" stroke-width="5" stroke-linecap="round"/>
<polygon points="314,146 312,159 324,153" fill="#E4572E"/>
<text x="150" y="120" font-size="13.5" font-weight="600" fill="#2B3A36">거치대를 엉덩이에 붙이듯 끝까지</text>
<text x="150" y="138" font-size="12" fill="#6E807B">허리 꺾지 말고 벤치를 감싸듯 · 반동 X</text>
<rect x="360" y="28" width="92" height="24" rx="12" fill="#EAF3F1" stroke="#CBDCD7"/>
<text x="406" y="45" font-size="12.5" font-weight="700" fill="#14776A" text-anchor="middle">핵심 자세</text>
</svg>
