<svg xmlns="http://www.w3.org/2000/svg" viewBox="0 0 480 300" font-family="'Noto Sans KR','Apple SD Gothic Neo',sans-serif">
<defs>
<linearGradient id="bg" x1="0" y1="0" x2="0" y2="1"><stop offset="0" stop-color="#FBFDFC"/><stop offset="1" stop-color="#E9F1EF"/></linearGradient>
<radialGradient id="glow" cx="50%" cy="50%" r="50%"><stop offset="0" stop-color="#E0982A" stop-opacity="0.42"/><stop offset="1" stop-color="#E0982A" stop-opacity="0"/></radialGradient>
<filter id="soft" x="-30%" y="-30%" width="160%" height="160%"><feDropShadow dx="0" dy="3" stdDeviation="4" flood-color="#22332F" flood-opacity="0.20"/></filter>
</defs>
<rect x="2" y="2" width="476" height="296" rx="20" fill="url(#bg)" stroke="#DBE5E2" stroke-width="2"/>
<text x="28" y="42" font-size="19" font-weight="700" fill="#2B3A36">레그 익스텐션 (한 발씩) · 핵심 자세</text>
<line x1="28" y1="54" x2="452" y2="54" stroke="#E4EBE9" stroke-width="2"/>
<rect x="148" y="128" width="14" height="110" rx="6" fill="#C3CEC9"/>
<rect x="160" y="206" width="60" height="12" rx="6" fill="#CBD8D3"/>
<ellipse cx="240" cy="200" rx="46" ry="26" fill="url(#glow)"/>
<g filter="url(#soft)" stroke-linecap="round">
  <line x1="176" y1="204" x2="172" y2="132" stroke="#516C66" stroke-width="27"/>
  <line x1="176" y1="206" x2="256" y2="206" stroke="#607D77" stroke-width="24"/>
  <line x1="256" y1="206" x2="322" y2="182" stroke="#5EA093" stroke-width="22"/>
  <circle cx="256" cy="206" r="14" fill="#607D77"/>
  <circle cx="166" cy="118" r="16" fill="#516C66"/>
</g>
<circle cx="324" cy="180" r="11" fill="#E6A23C" stroke="#C9871F" stroke-width="2"/>
<line x1="300" y1="204" x2="322" y2="184" stroke="#E4572E" stroke-width="5" stroke-linecap="round"/>
<polygon points="325,181 311,184 318,195" fill="#E4572E"/>
<text x="158.9" y="120" font-size="16.9" font-weight="600" fill="#2B3A36">무릎 누르듯 끝까지(쿼드셋 느낌)</text>
<text x="226.6" y="138" font-size="15.6" fill="#6E807B">위에서 1~2초 버티고 천천히</text>
<text x="44" y="285" font-size="15.6" fill="#6E807B">의자 뒤로 밀어 밀착 · 날개뼈 벤치에 기대</text>
<rect x="360" y="60" width="92" height="24" rx="12" fill="#EAF3F1" stroke="#CBDCD7"/>
<text x="406" y="77" font-size="12.5" font-weight="700" fill="#14776A" text-anchor="middle">한 발씩</text>
</svg>
