<svg xmlns="http://www.w3.org/2000/svg" viewBox="0 0 480 300" font-family="'Noto Sans KR','Apple SD Gothic Neo',sans-serif">
<defs>
<linearGradient id="bg" x1="0" y1="0" x2="0" y2="1"><stop offset="0" stop-color="#FBFDFC"/><stop offset="1" stop-color="#E9F1EF"/></linearGradient>
<radialGradient id="glow" cx="50%" cy="50%" r="50%"><stop offset="0" stop-color="#E0982A" stop-opacity="0.42"/><stop offset="1" stop-color="#E0982A" stop-opacity="0"/></radialGradient>
<filter id="soft" x="-30%" y="-30%" width="160%" height="160%"><feDropShadow dx="0" dy="3" stdDeviation="4" flood-color="#22332F" flood-opacity="0.20"/></filter>
</defs>
<rect x="2" y="2" width="476" height="296" rx="20" fill="url(#bg)" stroke="#DBE5E2" stroke-width="2"/>
<text x="28" y="42" font-size="19" font-weight="700" fill="#2B3A36">데드버그 · 핵심 자세</text>
<line x1="28" y1="54" x2="452" y2="54" stroke="#E4EBE9" stroke-width="2"/>
<rect x="60" y="250" width="360" height="10" rx="5" fill="#CBD8D3"/>
<ellipse cx="196" cy="222" rx="46" ry="26" fill="url(#glow)"/>
<g filter="url(#soft)" stroke-linecap="round">
  <line x1="98" y1="238" x2="214" y2="240" stroke="#516C66" stroke-width="28"/>
  <line x1="150" y1="236" x2="122" y2="176" stroke="#5EA093" stroke-width="13"/>
  <line x1="214" y1="238" x2="238" y2="176" stroke="#5EA093" stroke-width="22"/>
  <line x1="238" y1="176" x2="286" y2="180" stroke="#5EA093" stroke-width="14"/>
  <line x1="150" y1="238" x2="184" y2="242" stroke="#6A8781" stroke-width="12"/>
  <line x1="214" y1="240" x2="300" y2="244" stroke="#607D77" stroke-width="22"/>
  <circle cx="80" cy="230" r="18" fill="#516C66"/>
  <circle cx="214" cy="239" r="14" fill="#516C66"/>
</g>
<text x="150" y="118" font-size="17.5" font-weight="600" fill="#2B3A36">반대쪽 팔·다리 크로스</text>
<text x="106.9" y="136" font-size="15.6" fill="#6E807B">복부 수축 유지 · 골반 후방경사 · 천천히</text>
<rect x="360" y="28" width="92" height="24" rx="12" fill="#EAF3F1" stroke="#CBDCD7"/>
<text x="406" y="45" font-size="12.5" font-weight="700" fill="#14776A" text-anchor="middle">핵심 자세</text>
</svg>
