<svg xmlns="http://www.w3.org/2000/svg" viewBox="0 0 480 300" font-family="'Noto Sans KR','Apple SD Gothic Neo',sans-serif">
<defs>
<linearGradient id="bg" x1="0" y1="0" x2="0" y2="1"><stop offset="0" stop-color="#FBFDFC"/><stop offset="1" stop-color="#E9F1EF"/></linearGradient>
<radialGradient id="glow" cx="50%" cy="50%" r="50%"><stop offset="0" stop-color="#E0982A" stop-opacity="0.42"/><stop offset="1" stop-color="#E0982A" stop-opacity="0"/></radialGradient>
<filter id="soft" x="-30%" y="-30%" width="160%" height="160%"><feDropShadow dx="0" dy="3" stdDeviation="4" flood-color="#22332F" flood-opacity="0.20"/></filter>
</defs>
<rect x="2" y="2" width="476" height="296" rx="20" fill="url(#bg)" stroke="#DBE5E2" stroke-width="2"/>
<text x="28" y="42" font-size="19" font-weight="700" fill="#2B3A36">플랭크 · 핵심 자세</text>
<line x1="28" y1="54" x2="452" y2="54" stroke="#E4EBE9" stroke-width="2"/>
<rect x="60" y="250" width="360" height="10" rx="5" fill="#CBD8D3"/>
<ellipse cx="232" cy="212" rx="52" ry="24" fill="url(#glow)"/>
<g filter="url(#soft)" stroke-linecap="round">
  <line x1="150" y1="248" x2="158" y2="204" stroke="#6A8781" stroke-width="13"/>
  <line x1="150" y1="248" x2="182" y2="248" stroke="#6A8781" stroke-width="12"/>
  <line x1="158" y1="204" x2="300" y2="220" stroke="#516C66" stroke-width="28"/>
  <line x1="300" y1="220" x2="372" y2="248" stroke="#607D77" stroke-width="22"/>
  <line x1="372" y1="248" x2="388" y2="248" stroke="#607D77" stroke-width="12"/>
  <circle cx="138" cy="198" r="16" fill="#516C66"/>
  <circle cx="150" cy="248" r="10" fill="#6A8781"/>
</g>
<text x="150" y="118" font-size="17.5" font-weight="600" fill="#2B3A36">어깨-팔꿈치 사각형 · 몸 일직선</text>
<text x="126.7" y="136" font-size="15.6" fill="#6E807B">숨 뱉으며 배를 등에 붙이기(복부 수축)</text>
<text x="150" y="152" font-size="15.6" fill="#6E807B">엉덩이 빠지거나 허리 꺾이지 않게</text>
<rect x="360" y="28" width="92" height="24" rx="12" fill="#EAF3F1" stroke="#CBDCD7"/>
<text x="406" y="45" font-size="12.5" font-weight="700" fill="#14776A" text-anchor="middle">핵심 자세</text>
</svg>
