<svg xmlns="http://www.w3.org/2000/svg" viewBox="0 0 480 300" font-family="'Noto Sans KR','Apple SD Gothic Neo',sans-serif">
<defs>
<linearGradient id="bg" x1="0" y1="0" x2="0" y2="1"><stop offset="0" stop-color="#FBFDFC"/><stop offset="1" stop-color="#E9F1EF"/></linearGradient>
<radialGradient id="glow" cx="50%" cy="50%" r="50%"><stop offset="0" stop-color="#E0982A" stop-opacity="0.42"/><stop offset="1" stop-color="#E0982A" stop-opacity="0"/></radialGradient>
<filter id="soft" x="-30%" y="-30%" width="160%" height="160%"><feDropShadow dx="0" dy="3" stdDeviation="4" flood-color="#22332F" flood-opacity="0.20"/></filter>
</defs>
<rect x="2" y="2" width="476" height="296" rx="20" fill="url(#bg)" stroke="#DBE5E2" stroke-width="2"/>
<text x="28" y="42" font-size="19" font-weight="700" fill="#2B3A36">버드독 (Bird Dog) · 핵심 자세</text>
<line x1="28" y1="54" x2="452" y2="54" stroke="#E4EBE9" stroke-width="2"/>
<rect x="60" y="252" width="360" height="10" rx="5" fill="#CBD8D3"/>
<ellipse cx="252" cy="196" rx="48" ry="26" fill="url(#glow)"/>
<g filter="url(#soft)" stroke-linecap="round">
  <line x1="210" y1="196" x2="292" y2="200" stroke="#516C66" stroke-width="26"/>
  <line x1="200" y1="248" x2="210" y2="196" stroke="#6A8781" stroke-width="13"/>
  <line x1="292" y1="200" x2="300" y2="248" stroke="#607D77" stroke-width="20"/>
  <line x1="300" y1="248" x2="330" y2="250" stroke="#607D77" stroke-width="13"/>
  <line x1="210" y1="196" x2="164" y2="176" stroke="#5EA093" stroke-width="13"/>
  <line x1="164" y1="176" x2="130" y2="162" stroke="#5EA093" stroke-width="12"/>
  <line x1="292" y1="200" x2="346" y2="180" stroke="#5EA093" stroke-width="20"/>
  <line x1="346" y1="180" x2="378" y2="168" stroke="#5EA093" stroke-width="13"/>
  <circle cx="196" cy="184" r="15" fill="#516C66"/>
</g>
<text x="150" y="116" font-size="17.5" font-weight="600" fill="#2B3A36">반대쪽 팔·다리 크로스로 뻗기</text>
<text x="150" y="134" font-size="15.6" fill="#6E807B">척추 중립 · 계속 뻗어 올리는 느낌</text>
<rect x="360" y="28" width="92" height="24" rx="12" fill="#EAF3F1" stroke="#CBDCD7"/>
<text x="406" y="45" font-size="12.5" font-weight="700" fill="#14776A" text-anchor="middle">추천</text>
</svg>
