<svg xmlns="http://www.w3.org/2000/svg" viewBox="0 0 480 300" font-family="'Noto Sans KR','Apple SD Gothic Neo',sans-serif">
<defs>
<linearGradient id="bg" x1="0" y1="0" x2="0" y2="1"><stop offset="0" stop-color="#FBFDFC"/><stop offset="1" stop-color="#E9F1EF"/></linearGradient>
<radialGradient id="glow" cx="50%" cy="50%" r="50%"><stop offset="0" stop-color="#E0982A" stop-opacity="0.42"/><stop offset="1" stop-color="#E0982A" stop-opacity="0"/></radialGradient>
<filter id="soft" x="-30%" y="-30%" width="160%" height="160%"><feDropShadow dx="0" dy="3" stdDeviation="4" flood-color="#22332F" flood-opacity="0.20"/></filter>
</defs>
<rect x="2" y="2" width="476" height="296" rx="20" fill="url(#bg)" stroke="#DBE5E2" stroke-width="2"/>
<text x="28" y="42" font-size="19" font-weight="700" fill="#2B3A36">티밸런스 (T-balance) · 핵심 자세</text>
<line x1="28" y1="54" x2="452" y2="54" stroke="#E4EBE9" stroke-width="2"/>
<rect x="160" y="256" width="180" height="10" rx="5" fill="#CBD8D3"/>
<ellipse cx="240" cy="150" rx="46" ry="30" fill="url(#glow)"/>
<g filter="url(#soft)" stroke-linecap="round">
  <line x1="222" y1="252" x2="234" y2="152" stroke="#607D77" stroke-width="24"/>
  <line x1="234" y1="152" x2="150" y2="136" stroke="#516C66" stroke-width="26"/>
  <line x1="222" y1="146" x2="176" y2="152" stroke="#6A8781" stroke-width="13"/>
  <line x1="176" y1="152" x2="140" y2="158" stroke="#6A8781" stroke-width="12"/>
  <line x1="234" y1="152" x2="320" y2="132" stroke="#5EA093" stroke-width="24"/>
  <line x1="320" y1="132" x2="352" y2="126" stroke="#5EA093" stroke-width="14"/>
  <circle cx="234" cy="152" r="14" fill="#607D77"/>
  <circle cx="138" cy="132" r="15" fill="#516C66"/>
</g>
<ellipse cx="228" cy="252" rx="24" ry="10" fill="#E6A23C" stroke="#C9871F" stroke-width="2"/>
<circle cx="228" cy="256" r="5" fill="#E4572E"/>
<text x="44" y="196" font-size="17.5" font-weight="600" fill="#2B3A36">한 발 힙힌지 · 팔·다리 함께 뻗기</text>
<text x="44" y="214" font-size="15.6" fill="#6E807B">발가락 힘 · 바깥 엉덩이 텐션 유지</text>
<text x="44" y="230" font-size="15.6" fill="#6E807B">다리는 펴서 · 폼롤러 위에서 밸런스</text>
<rect x="360" y="28" width="92" height="24" rx="12" fill="#EAF3F1" stroke="#CBDCD7"/>
<text x="406" y="45" font-size="12.5" font-weight="700" fill="#14776A" text-anchor="middle">추천</text>
</svg>
