<svg xmlns="http://www.w3.org/2000/svg" viewBox="0 0 480 300" font-family="'Noto Sans KR','Apple SD Gothic Neo',sans-serif">
<defs>
<linearGradient id="bg" x1="0" y1="0" x2="0" y2="1"><stop offset="0" stop-color="#FBFDFC"/><stop offset="1" stop-color="#E9F1EF"/></linearGradient>
<radialGradient id="glow" cx="50%" cy="50%" r="50%"><stop offset="0" stop-color="#E0982A" stop-opacity="0.42"/><stop offset="1" stop-color="#E0982A" stop-opacity="0"/></radialGradient>
<filter id="soft" x="-30%" y="-30%" width="160%" height="160%"><feDropShadow dx="0" dy="3" stdDeviation="4" flood-color="#22332F" flood-opacity="0.20"/></filter>
</defs>
<rect x="2" y="2" width="476" height="296" rx="20" fill="url(#bg)" stroke="#DBE5E2" stroke-width="2"/>
<text x="28" y="42" font-size="19" font-weight="700" fill="#2B3A36">스텝업 (Step-up) · 핵심 자세</text>
<line x1="28" y1="54" x2="452" y2="54" stroke="#E4EBE9" stroke-width="2"/>
<rect x="60" y="256" width="360" height="10" rx="5" fill="#CBD8D3"/>
<rect x="256" y="200" width="104" height="56" rx="5" fill="#C3CEC9"/>
<ellipse cx="240" cy="176" rx="42" ry="30" fill="url(#glow)"/>
<g filter="url(#soft)" stroke-linecap="round">
  <line x1="288" y1="200" x2="280" y2="158" stroke="#607D77" stroke-width="22"/>
  <line x1="280" y1="158" x2="250" y2="130" stroke="#607D77" stroke-width="26"/>
  <line x1="250" y1="130" x2="222" y2="182" stroke="#516C66" stroke-width="22"/>
  <line x1="222" y1="182" x2="190" y2="254" stroke="#516C66" stroke-width="20"/>
  <line x1="250" y1="130" x2="258" y2="82" stroke="#516C66" stroke-width="26"/>
  <line x1="256" y1="96" x2="292" y2="120" stroke="#6A8781" stroke-width="13"/>
  <circle cx="250" cy="130" r="14" fill="#516C66"/>
  <circle cx="262" cy="68" r="15" fill="#516C66"/>
</g>
<line x1="300" y1="192" x2="300" y2="172" stroke="#E4572E" stroke-width="5.5" stroke-linecap="round"/>
<polygon points="300,167 295,179 305,179" fill="#E4572E"/>
<text x="40" y="120" font-size="17.5" font-weight="600" fill="#2B3A36">딛는 발 뒤꿈치로 밟아 올라가기</text>
<text x="40" y="138" font-size="15.6" fill="#6E807B">내려올 땐 멀리·천천히 (엉덩이 접힘)</text>
<rect x="360" y="60" width="92" height="24" rx="12" fill="#EAF3F1" stroke="#CBDCD7"/>
<text x="406" y="77" font-size="12.5" font-weight="700" fill="#14776A" text-anchor="middle">추천</text>
</svg>
